<?xml version="1.0" encoding="UTF-8"?>
<!DOCTYPE svg PUBLIC "-//W3C//DTD SVG 1.1//EN" "http://www.w3.org/Graphics/SVG/1.1/DTD/svg11.dtd">
<!-- Creator: CorelDRAW 2018 -->
<svg xmlns="http://www.w3.org/2000/svg" xml:space="preserve" width="350px" height="48px" version="1.1" style="shape-rendering:geometricPrecision; text-rendering:geometricPrecision; image-rendering:optimizeQuality; fill-rule:evenodd; clip-rule:evenodd"
viewBox="0 0 350 48"
 xmlns:xlink="http://www.w3.org/1999/xlink">
 <defs>
  <style type="text/css">
   <![CDATA[
    .fil0 {fill:#49111C}
    .fil1 {fill:#7C1C2F}
    .fil3 {fill:#435058;fill-rule:nonzero}
    .fil4 {fill:#7C1C2F;fill-rule:nonzero}
    .fil2 {fill:black;fill-rule:nonzero}
   ]]>
  </style>
 </defs>
 <g id="Layer_x0020_1">
  <metadata id="CorelCorpID_0Corel-Layer"/>
  <g id="_1246413984">
   <g>
    <path class="fil0" d="M26.74 35.96c-0.52,-1.4 -3.02,-4.9 -3.88,-6.01 -4.4,0 -8.23,0.03 -8.86,-4.31 -0.57,-3.95 3.55,-7.03 7.27,-5.35 1.42,0.64 4.64,6.01 5.75,7.62 1.65,2.39 4.19,5.69 5.33,8.02l7.23 0.01c-0.93,-2.02 -3.24,-5.02 -4.63,-7.05 -2.53,-3.71 -6.7,-11.09 -10.16,-13.38 -8.65,-5.72 -20.78,3.74 -15.82,14.21 1.19,2.52 3.45,4.53 6.2,5.56 2.94,1.1 8.16,0.69 11.57,0.68z"/>
    <path class="fil1" d="M38.49 25.34l7.19 0.03 -12.59 -18.77c-1.33,-1.94 -3.17,-4.33 -4.16,-6.27l-7.32 0.04c2.36,4.03 5.73,8.61 8.39,12.49l8.49 12.48z"/>
    <path class="fil0" d="M2.89 15.21c-4.24,1.25 -2.3,6.89 1.65,5.94 3.57,-0.86 2.4,-7.15 -1.65,-5.94z"/>
   </g>
   <path class="fil2" d="M84.67 12.31c-3.16,0 -5.88,1.26 -7.62,3.44 -1.54,-2.35 -4.1,-3.44 -7.1,-3.44 -2.6,0 -4.91,0.89 -6.57,2.67l0 -2.31 -7.35 0 0 21.99 7.71 0 0 -10.91c0,-3.41 1.62,-4.91 3.9,-4.91 2.07,0 3.32,1.34 3.32,4.5l0 11.32 7.71 0 0 -10.91c0,-3.41 1.62,-4.91 3.86,-4.91 2.02,0 3.32,1.34 3.32,4.5l0 11.32 7.71 0 0 -12.58c0,-6.81 -3.77,-9.77 -8.89,-9.77z"/>
   <path id="1" class="fil2" d="M107.8 12.31c-3.45,0 -7.18,0.89 -9.7,2.55l2.6 5.24c1.5,-1.18 3.85,-1.91 5.96,-1.91 3.05,0 4.55,1.26 4.67,3.49l-4.38 0c-6.82,0 -9.78,2.51 -9.78,6.57 0,3.81 2.92,6.77 8.2,6.77 3.2,0 5.39,-1.09 6.49,-3.2l0 2.84 7.18 0 0 -12.21c0,-6.98 -4.1,-10.14 -11.24,-10.14zm-0.28 17.85c-1.83,0 -2.89,-0.94 -2.89,-2.24 0,-1.33 0.9,-2.23 3.37,-2.23l3.33 0 0 1.91c-0.61,1.75 -2.11,2.56 -3.81,2.56z"/>
   <path id="2" class="fil2" d="M140.94 12.67l0 2.68c-1.5,-2.07 -3.85,-3.04 -6.89,-3.04 -5.85,0 -10.8,4.13 -10.8,10.58 0,6.5 4.95,10.63 10.8,10.63 2.8,0 5.03,-0.85 6.53,-2.59l0 0.73c0,3.45 -1.75,5.31 -5.89,5.31 -2.59,0 -5.59,-0.89 -7.42,-2.35l-2.8 5.39c2.68,1.91 6.7,2.88 10.91,2.88 8.2,0 12.9,-3.93 12.9,-12.25l0 -17.97 -7.34 0zm-5.07 14.73c-2.76,0 -4.83,-1.83 -4.83,-4.51 0,-2.67 2.07,-4.46 4.83,-4.46 2.76,0 4.79,1.79 4.79,4.46 0,2.68 -2.03,4.51 -4.79,4.51z"/>
   <path id="3" class="fil2" d="M162.61 12.31c-3.45,0 -7.18,0.89 -9.7,2.55l2.6 5.24c1.5,-1.18 3.85,-1.91 5.96,-1.91 3.04,0 4.54,1.26 4.67,3.49l-4.39 0c-6.81,0 -9.77,2.51 -9.77,6.57 0,3.81 2.92,6.77 8.19,6.77 3.21,0 5.4,-1.09 6.49,-3.2l0 2.84 7.18 0 0 -12.21c0,-6.98 -4.09,-10.14 -11.23,-10.14zm-0.29 17.85c-1.82,0 -2.88,-0.94 -2.88,-2.24 0,-1.33 0.89,-2.23 3.37,-2.23l3.33 0 0 1.91c-0.61,1.75 -2.11,2.56 -3.82,2.56z"/>
   <polygon id="4" class="fil3" points="195.47,13.48 186.95,32.43 178.51,13.48 176.36,13.48 185.89,34.66 187.96,34.66 197.53,13.48 "/>
   <path id="5" class="fil3" d="M219.28 23.99c0,-6.29 -4.3,-10.67 -10.1,-10.67 -5.8,0 -10.14,4.46 -10.14,10.75 0,6.29 4.5,10.75 10.91,10.75 3.2,0 6.12,-1.17 7.99,-3.45l-1.18 -1.34c-1.62,1.99 -4.09,2.97 -6.77,2.97 -5.07,0 -8.76,-3.41 -8.97,-8.44l18.22 0c0,-0.2 0.04,-0.41 0.04,-0.57zm-10.1 -8.88c4.5,0 7.83,3.28 8.11,7.87l-16.23 0c0.33,-4.63 3.61,-7.87 8.12,-7.87z"/>
   <path id="6" class="fil3" d="M235.91 13.32c-4.01,0 -6.98,1.79 -8.4,4.75l0 -4.59 -1.94 0 0 21.18 2.02 0 0 -11.28c0,-5.03 3.05,-8.23 8.04,-8.23 4.3,0 6.85,2.51 6.85,7.3l0 12.21 2.03 0 0 -12.37c0,-5.93 -3.45,-8.97 -8.6,-8.97z"/>
   <path id="7" class="fil3" d="M262.52 31.9c-0.85,0.77 -2.02,1.18 -3.28,1.18 -2.6,0 -3.94,-1.5 -3.94,-4.22l0 -13.63 6.74 0 0 -1.75 -6.74 0 0 -4.62 -2.03 0 0 4.62 -3.89 0 0 1.75 3.89 0 0 13.83c0,3.57 2.03,5.76 5.77,5.76 1.58,0 3.28,-0.49 4.34,-1.5l-0.86 -1.42z"/>
   <path id="8" class="fil3" d="M285.53 13.48l0 11.28c0,5.03 -2.97,8.24 -7.75,8.24 -4.42,0 -6.98,-2.52 -6.98,-7.31l0 -12.21 -2.03 0 0 12.38c0,5.92 3.45,8.96 8.84,8.96 3.74,0 6.62,-1.74 8,-4.7l0 4.54 1.94 0 0 -21.18 -2.02 0z"/>
   <path id="9" class="fil3" d="M298.1 18.11l0 -4.63 -1.95 0 0 21.18 2.03 0 0 -11.03c0,-5.24 2.8,-8.36 7.51,-8.36 0.16,0 0.32,0.04 0.48,0.04l0 -1.99c-3.97,0 -6.77,1.7 -8.07,4.79z"/>
   <path id="10" class="fil3" d="M329.5 23.99c0,-6.29 -4.3,-10.67 -10.1,-10.67 -5.8,0 -10.14,4.46 -10.14,10.75 0,6.29 4.5,10.75 10.91,10.75 3.21,0 6.13,-1.17 7.99,-3.45l-1.17 -1.34c-1.63,1.99 -4.1,2.97 -6.78,2.97 -5.07,0 -8.76,-3.41 -8.96,-8.44l18.21 0c0,-0.2 0.04,-0.41 0.04,-0.57zm-10.1 -8.88c4.5,0 7.83,3.28 8.11,7.87l-16.22 0c0.32,-4.63 3.61,-7.87 8.11,-7.87z"/>
   <path id="11" class="fil3" d="M341.14 34.82c5.4,0 8.36,-2.35 8.36,-5.81 0,-8.06 -14.04,-3.57 -14.04,-9.92 0,-2.28 1.83,-3.98 5.97,-3.98 2.27,0 4.58,0.6 6.37,1.9l0.93 -1.62c-1.66,-1.26 -4.58,-2.07 -7.26,-2.07 -5.36,0 -8.03,2.6 -8.03,5.81 0,8.3 14.03,3.78 14.03,9.92 0,2.41 -1.78,3.99 -6.25,3.99 -3.12,0 -6,-1.18 -7.62,-2.56l-0.94 1.62c1.67,1.55 5,2.72 8.48,2.72z"/>
   <path class="fil4" d="M187.06 47.67c1.23,0 2.28,-0.45 2.98,-1.27l-0.9 -0.87c-0.55,0.61 -1.22,0.9 -2.01,0.9 -1.55,0 -2.68,-1.1 -2.68,-2.66 0,-1.56 1.13,-2.67 2.68,-2.67 0.79,0 1.46,0.3 2.01,0.89l0.9 -0.85c-0.7,-0.83 -1.75,-1.27 -2.97,-1.27 -2.31,0 -4.03,1.64 -4.03,3.9 0,2.26 1.72,3.9 4.02,3.9z"/>
   <path id="1" class="fil4" d="M199.32 47.56l1.46 0 -3.39 -7.58 -1.37 0 -3.38 7.58 1.43 0 0.75 -1.76 3.75 0 0.75 1.76zm-4.03 -2.86l1.4 -3.31 1.42 3.31 -2.82 0z"/>
   <path id="2" class="fil4" d="M207.3 39.98l-3.08 0 0 7.58 1.39 0 0 -2.19 1.69 0c1.98,0 3.2,-1.03 3.2,-2.7 0,-1.67 -1.22,-2.69 -3.2,-2.69zm-0.06 4.2l-1.63 0 0 -3.01 1.63 0c1.22,0 1.86,0.55 1.86,1.5 0,0.96 -0.64,1.51 -1.86,1.51z"/>
   <polygon id="3" class="fil4" points="214.38,47.56 215.77,47.56 215.77,39.98 214.38,39.98 "/>
   <polygon id="4" class="fil4" points="221.8,47.56 223.2,47.56 223.2,41.17 225.69,41.17 225.69,39.98 219.32,39.98 219.32,41.17 221.8,41.17 "/>
   <path id="5" class="fil4" d="M234.47 47.56l1.45 0 -3.38 -7.58 -1.38 0 -3.38 7.58 1.44 0 0.74 -1.76 3.76 0 0.75 1.76zm-4.04 -2.86l1.41 -3.31 1.41 3.31 -2.82 0z"/>
   <polygon id="6" class="fil4" points="239.36,47.56 244.68,47.56 244.68,46.37 240.75,46.37 240.75,39.98 239.36,39.98 "/>
   <polygon id="7" class="fil4" points="256.06,46.38 256.06,44.29 259.69,44.29 259.69,43.13 256.06,43.13 256.06,41.16 260.15,41.16 260.15,39.98 254.67,39.98 254.67,47.56 260.3,47.56 260.3,46.38 "/>
   <polygon id="8" class="fil4" points="276.22,41.16 276.22,39.98 270.74,39.98 270.74,47.56 272.13,47.56 272.13,44.66 275.76,44.66 275.76,43.46 272.13,43.46 272.13,41.16 "/>
   <path id="9" class="fil4" d="M283.48 47.67c2.32,0 4.04,-1.65 4.04,-3.9 0,-2.25 -1.72,-3.9 -4.04,-3.9 -2.33,0 -4.05,1.66 -4.05,3.9 0,2.24 1.72,3.9 4.05,3.9zm0 -1.24c-1.52,0 -2.64,-1.11 -2.64,-2.66 0,-1.55 1.12,-2.67 2.64,-2.67 1.51,0 2.63,1.12 2.63,2.67 0,1.55 -1.12,2.66 -2.63,2.66z"/>
   <polygon id="10" class="fil4" points="299.7,47.56 299.69,39.98 298.54,39.98 295.61,45 292.63,39.98 291.48,39.98 291.48,47.56 292.81,47.56 292.81,42.6 295.28,46.69 295.9,46.69 298.37,42.53 298.38,47.56 "/>
   <polygon id="11" class="fil4" points="305.6,46.38 305.6,44.29 309.23,44.29 309.23,43.13 305.6,43.13 305.6,41.16 309.69,41.16 309.69,39.98 304.21,39.98 304.21,47.56 309.84,47.56 309.84,46.38 "/>
   <polygon id="12" class="fil4" points="319.16,39.98 319.16,45.11 315.02,39.98 313.88,39.98 313.88,47.56 315.26,47.56 315.26,42.43 319.4,47.56 320.55,47.56 320.55,39.98 "/>
   <polygon id="13" class="fil4" points="326.57,47.56 327.96,47.56 327.96,41.17 330.45,41.17 330.45,39.98 324.08,39.98 324.08,41.17 326.57,41.17 "/>
   <path id="14" class="fil4" d="M337.38 47.67c2.33,0 4.05,-1.65 4.05,-3.9 0,-2.25 -1.72,-3.9 -4.05,-3.9 -2.32,0 -4.04,1.66 -4.04,3.9 0,2.24 1.72,3.9 4.04,3.9zm0 -1.24c-1.51,0 -2.63,-1.11 -2.63,-2.66 0,-1.55 1.12,-2.67 2.63,-2.67 1.52,0 2.64,1.12 2.64,2.67 0,1.55 -1.12,2.66 -2.64,2.66z"/>
  </g>
 </g>
</svg>
