<?xml version="1.0" encoding="UTF-8"?>
<!DOCTYPE svg PUBLIC "-//W3C//DTD SVG 1.1//EN" "http://www.w3.org/Graphics/SVG/1.1/DTD/svg11.dtd">
<!-- Creator: CorelDRAW 2018 -->
<svg xmlns="http://www.w3.org/2000/svg" xml:space="preserve" width="350px" height="47px" version="1.1" style="shape-rendering:geometricPrecision; text-rendering:geometricPrecision; image-rendering:optimizeQuality; fill-rule:evenodd; clip-rule:evenodd"
viewBox="0 0 350 47"
 xmlns:xlink="http://www.w3.org/1999/xlink">
 <defs>
  <style type="text/css">
   <![CDATA[
    .fil0 {fill:#fff}
    .fil1 {fill:#fff;fill-rule:nonzero}
   ]]>
  </style>
 </defs>
 <g id="Layer_x0020_1">
  <metadata id="CorelCorpID_0Corel-Layer"/>
  <g id="_1246077576">
   <g>
    <path class="fil0" d="M26.77 37.86c-0.53,-1.4 -3.03,-4.91 -3.89,-6.01 -4.4,0 -8.24,0.02 -8.87,-4.32 -0.57,-3.96 3.55,-7.04 7.28,-5.35 1.42,0.64 4.65,6.01 5.76,7.62 1.64,2.4 4.19,5.69 5.33,8.02l7.24 0.02c-0.94,-2.02 -3.24,-5.03 -4.63,-7.06 -2.54,-3.71 -6.71,-11.1 -10.17,-13.39 -8.66,-5.72 -20.81,3.75 -15.84,14.22 1.19,2.53 3.45,4.54 6.21,5.57 2.93,1.1 8.16,0.69 11.58,0.68z"/>
    <path class="fil0" d="M38.53 27.23l7.2 0.03 -12.61 -18.79c-1.33,-1.94 -3.17,-4.33 -4.17,-6.27l-7.32 0.04c2.36,4.03 5.74,8.61 8.4,12.49l8.5 12.5z"/>
    <path class="fil0" d="M2.89 17.08c-4.25,1.26 -2.3,6.91 1.65,5.95 3.57,-0.86 2.4,-7.15 -1.65,-5.95z"/>
   </g>
   <path class="fil1" d="M84.76 14.19c-3.17,0 -5.89,1.25 -7.64,3.45 -1.54,-2.36 -4.1,-3.45 -7.1,-3.45 -2.6,0 -4.92,0.89 -6.58,2.68l0 -2.32 -7.35 0 0 22.01 7.71 0 0 -10.92c0,-3.42 1.63,-4.92 3.9,-4.92 2.07,0 3.33,1.34 3.33,4.51l0 11.33 7.72 0 0 -10.92c0,-3.42 1.62,-4.92 3.85,-4.92 2.03,0 3.33,1.34 3.33,4.51l0 11.33 7.72 0 0 -12.59c0,-6.82 -3.78,-9.78 -8.89,-9.78z"/>
   <path id="1" class="fil1" d="M107.9 14.19c-3.45,0 -7.19,0.89 -9.7,2.55l2.59 5.24c1.51,-1.18 3.86,-1.91 5.97,-1.91 3.05,0 4.55,1.26 4.67,3.5l-4.38 0c-6.82,0 -9.79,2.51 -9.79,6.57 0,3.82 2.93,6.78 8.2,6.78 3.21,0 5.4,-1.09 6.5,-3.2l0 2.84 7.19 0 0 -12.22c0,-6.99 -4.1,-10.15 -11.25,-10.15zm-0.28 17.86c-1.83,0 -2.89,-0.93 -2.89,-2.23 0,-1.34 0.9,-2.24 3.37,-2.24l3.33 0 0 1.91c-0.61,1.75 -2.11,2.56 -3.81,2.56z"/>
   <path id="2" class="fil1" d="M140.75 14.55l0 2.68c-1.5,-2.07 -3.86,-3.04 -6.9,-3.04 -5.85,0 -10.8,4.14 -10.8,10.59 0,6.5 4.95,10.64 10.8,10.64 2.8,0 5.03,-0.85 6.54,-2.6l0 0.73c0,3.46 -1.75,5.32 -5.89,5.32 -2.6,0 -5.61,-0.89 -7.43,-2.35l-2.8 5.4c2.68,1.91 6.69,2.88 10.92,2.88 8.2,0 12.91,-3.94 12.91,-12.26l0 -17.99 -7.35 0zm-5.07 14.74c-2.77,0 -4.84,-1.83 -4.84,-4.51 0,-2.68 2.07,-4.46 4.84,-4.46 2.76,0 4.79,1.78 4.79,4.46 0,2.68 -2.03,4.51 -4.79,4.51z"/>
   <path id="3" class="fil1" d="M162.43 14.19c-3.45,0 -7.18,0.89 -9.7,2.55l2.6 5.24c1.5,-1.18 3.85,-1.91 5.97,-1.91 3.04,0 4.55,1.26 4.67,3.5l-4.39 0c-6.82,0 -9.79,2.51 -9.79,6.57 0,3.82 2.93,6.78 8.21,6.78 3.21,0 5.4,-1.09 6.49,-3.2l0 2.84 7.19 0 0 -12.22c0,-6.99 -4.1,-10.15 -11.25,-10.15zm-0.28 17.86c-1.83,0 -2.88,-0.93 -2.88,-2.23 0,-1.34 0.89,-2.24 3.37,-2.24l3.33 0 0 1.91c-0.61,1.75 -2.11,2.56 -3.82,2.56z"/>
   <polygon id="4" class="fil1" points="195.32,15.36 186.8,34.33 178.35,15.36 176.2,15.36 185.74,36.56 187.81,36.56 197.39,15.36 "/>
   <path id="5" class="fil1" d="M219.16 25.88c0,-6.29 -4.3,-10.68 -10.11,-10.68 -5.81,0 -10.15,4.47 -10.15,10.76 0,6.29 4.5,10.76 10.92,10.76 3.21,0 6.13,-1.18 8,-3.45l-1.18 -1.34c-1.62,1.99 -4.1,2.96 -6.78,2.96 -5.07,0 -8.77,-3.41 -8.97,-8.44l18.23 0c0,-0.2 0.04,-0.41 0.04,-0.57zm-10.11 -8.89c4.5,0 7.83,3.29 8.12,7.87l-16.24 0c0.32,-4.62 3.61,-7.87 8.12,-7.87z"/>
   <path id="6" class="fil1" d="M235.81 15.2c-4.02,0 -6.99,1.79 -8.41,4.75l0 -4.59 -1.95 0 0 21.2 2.03 0 0 -11.29c0,-5.03 3.05,-8.24 8.04,-8.24 4.31,0 6.86,2.51 6.86,7.31l0 12.22 2.03 0 0 -12.39c0,-5.92 -3.45,-8.97 -8.6,-8.97z"/>
   <path id="7" class="fil1" d="M262.44 33.8c-0.85,0.77 -2.03,1.17 -3.28,1.17 -2.6,0 -3.94,-1.5 -3.94,-4.22l0 -13.64 6.74 0 0 -1.75 -6.74 0 0 -4.63 -2.03 0 0 4.63 -3.9 0 0 1.75 3.9 0 0 13.85c0,3.57 2.03,5.76 5.76,5.76 1.59,0 3.29,-0.49 4.35,-1.5l-0.86 -1.42z"/>
   <path id="8" class="fil1" d="M285.47 15.36l0 11.29c0,5.04 -2.97,8.24 -7.76,8.24 -4.42,0 -6.98,-2.51 -6.98,-7.31l0 -12.22 -2.03 0 0 12.39c0,5.93 3.45,8.97 8.85,8.97 3.73,0 6.62,-1.75 8,-4.71l0 4.55 1.95 0 0 -21.2 -2.03 0z"/>
   <path id="9" class="fil1" d="M298.05 19.99l0 -4.63 -1.94 0 0 21.2 2.03 0 0 -11.05c0,-5.23 2.8,-8.36 7.51,-8.36 0.16,0 0.32,0.04 0.49,0.04l0 -1.99c-3.98,0 -6.79,1.71 -8.09,4.79z"/>
   <path id="10" class="fil1" d="M329.48 25.88c0,-6.29 -4.3,-10.68 -10.11,-10.68 -5.8,0 -10.15,4.47 -10.15,10.76 0,6.29 4.51,10.76 10.93,10.76 3.2,0 6.13,-1.18 7.99,-3.45l-1.17 -1.34c-1.63,1.99 -4.1,2.96 -6.78,2.96 -5.08,0 -8.78,-3.41 -8.98,-8.44l18.23 0c0,-0.2 0.04,-0.41 0.04,-0.57zm-10.11 -8.89c4.51,0 7.84,3.29 8.12,7.87l-16.24 0c0.33,-4.62 3.62,-7.87 8.12,-7.87z"/>
   <path id="11" class="fil1" d="M341.14 36.72c5.4,0 8.36,-2.35 8.36,-5.81 0,-8.07 -14.05,-3.58 -14.05,-9.94 0,-2.28 1.83,-3.98 5.97,-3.98 2.28,0 4.59,0.61 6.38,1.91l0.93 -1.63c-1.66,-1.26 -4.59,-2.07 -7.27,-2.07 -5.36,0 -8.04,2.6 -8.04,5.81 0,8.31 14.05,3.79 14.05,9.94 0,2.4 -1.78,3.98 -6.25,3.98 -3.13,0 -6.01,-1.17 -7.64,-2.55l-0.93 1.62c1.67,1.54 5,2.72 8.49,2.72z"/>
  </g>
 </g>
</svg>
